<svg xmlns="http://www.w3.org/2000/svg" xmlns:xlink="http://www.w3.org/1999/xlink" width="160.782" height="39.412" viewBox="0 0 160.782 39.412">
  <defs>
    <linearGradient id="linear-gradient" x1="0.302" y1="0.5" x2="1.066" y2="0.5" gradientUnits="objectBoundingBox">
      <stop offset="0" stop-color="#004d81"/>
      <stop offset="0.305" stop-color="#024779"/>
      <stop offset="0.773" stop-color="#083763"/>
      <stop offset="1" stop-color="#0c2e57"/>
    </linearGradient>
    <linearGradient id="linear-gradient-2" x1="0.043" y1="0.029" x2="1.043" y2="1.083" gradientUnits="objectBoundingBox">
      <stop offset="0" stop-color="#00458c"/>
      <stop offset="1" stop-color="#1a96c3"/>
    </linearGradient>
  </defs>
  <g id="Open_ax_logo" data-name="Open ax logo" transform="translate(-46.989 -360.07)">
    <path id="Path_3607" data-name="Path 3607" d="M210.295,389.561a5.421,5.421,0,0,0-3.257,1.348c-1.089,1.05-1.25,1.78-1.342,6.063-.086,4.007.056,5.382.686,6.661.528,1.073,1.324,1.621,2.969,2.044,1.1.282,1.824.318,6.466.318,5.52,0,6.728-.117,8.028-.784,1.367-.7,1.931-1.821,2.193-4.362a37.213,37.213,0,0,0-.247-8,3.617,3.617,0,0,0-1.669-2.428c-1.446-.842-2.019-.914-7.638-.963-2.866-.025-5.651.021-6.189.1Zm12.345,1.89a1.875,1.875,0,0,1,1.14,1.14c.34.743.358.993.358,5.1,0,4.284,0,4.322-.407,5.13-.74,1.48-.668,1.466-7.443,1.523-6.14.052-6.8,0-7.605-.639-.962-.762-.993-.949-.993-5.933,0-4.234.023-4.605.323-5.195a2.4,2.4,0,0,1,1.875-1.385c.4-.081,3.257-.135,6.352-.122,5.423.023,5.646.037,6.4.383Z" transform="translate(-107.73 -19.949)" fill="#004d81"/>
    <path id="Path_3608" data-name="Path 3608" d="M435.449,398.105c-2.438,4.316-4.468,7.913-4.5,7.98s.44.122,1.042.122h1.108l.993-1.75.994-1.751,6.286-.041,6.286-.041,1,1.791,1,1.791h.961a2.524,2.524,0,0,0,.961-.1c0-.054-2-3.648-4.438-7.98l-4.438-7.882h-2.817l-4.438,7.857Zm8.615-1.832,2.613,4.642-5.228.041c-2.882.022-5.253.015-5.284-.016s1.123-2.15,2.573-4.723,2.648-4.647,2.671-4.625,1.215,2.125,2.655,4.682Z" transform="translate(-260.664 -20.488)" fill="#004d81"/>
    <path id="Path_3609" data-name="Path 3609" d="M281.88,402.2a5.983,5.983,0,0,0-1.669.641l-.627.415v-.977H277.63v15.96h1.955v-5.391l.6.485c.912.732,2.345,1.05,4.772,1.06,3.518.014,5.4-.618,6.361-2.13.661-1.045.858-2.215.776-4.609a6.761,6.761,0,0,0-.435-2.85c-.673-1.5-1.637-2.2-3.591-2.618a21.91,21.91,0,0,0-6.189.014Zm6.287,1.628a2.767,2.767,0,0,1,1.956,1.985,19.375,19.375,0,0,1,.121,2.581c-.008,1.742-.052,2.051-.4,2.76-.5,1.01-1.054,1.331-2.7,1.567a20.17,20.17,0,0,1-5.473-.173,2.829,2.829,0,0,1-1.788-1.849,13.548,13.548,0,0,1-.2-2.557c-.008-2.785.493-3.837,2.058-4.322a21.557,21.557,0,0,1,6.433.008Z" transform="translate(-156.581 -28.448)" fill="#004d81"/>
    <path id="Path_3610" data-name="Path 3610" d="M333.948,402.186a4.7,4.7,0,0,0-3.987,3.3,9.534,9.534,0,0,0-.3,3.144c.025,2.98.507,4.117,2.117,4.99,1.2.653,2.459.855,5.276.849,2.72-.006,4.122-.251,5.179-.905a2.972,2.972,0,0,0,1.169-2.132c0-.432-.012-.44-.973-.44-.945,0-.977.014-.977.407,0,.595-.7,1.18-1.6,1.334a31.879,31.879,0,0,1-3.379.124c-2.443-.008-2.666-.034-3.412-.41-.975-.491-1.351-1.161-1.493-2.659l-.1-1.075,5.928-.041,5.928-.04-.024-1.507a4.538,4.538,0,0,0-.464-2.4,4.364,4.364,0,0,0-2.526-2.224,8.535,8.535,0,0,0-3.257-.4,24.047,24.047,0,0,0-3.111.088Zm6.025,1.96a2.987,2.987,0,0,1,1.483,2.642v.782h-9.934l0-.619a3.383,3.383,0,0,1,.748-2.328c.746-.775,1.608-.952,4.459-.914,2.361.031,2.571.06,3.24.437Z" transform="translate(-191.906 -28.526)" fill="#004d81"/>
    <path id="Path_3611" data-name="Path 3611" d="M386.208,402.192a4.822,4.822,0,0,0-2.736,1.405l-.423.5v-1.824h-1.954v11.888h1.954v-4.209c0-4.1.009-4.224.375-4.764.859-1.271,2.231-1.678,5.341-1.584,2.215.066,3.02.318,3.609,1.128.5.691.594,1.531.6,5.554l.006,3.875h1.988l-.057-4.519c-.057-4.5-.06-4.525-.5-5.448a3.467,3.467,0,0,0-2.656-1.99,16.878,16.878,0,0,0-5.553-.017Z" transform="translate(-226.821 -28.446)" fill="#004d81"/>
    <path id="Path_3612" data-name="Path 3612" d="M503.075,403.619c.355.383,1.624,1.694,2.834,2.932l2.191,2.239-3,3.013-3,3.013H504.7l2.361-2.361,2.361-2.361,2.362,2.361,2.361,2.361h2.606l-2.972-2.972a42.988,42.988,0,0,1-2.972-3.135,38.454,38.454,0,0,1,2.809-2.972l2.81-2.809h-2.606l-2.247,2.239-2.247,2.239-2.182-2.239-2.183-2.239h-2.524l.643.692Z" transform="translate(-308.976 -29.095)" fill="#004d81"/>
    <g id="Group_890" data-name="Group 890">
      <path id="Path_3613" data-name="Path 3613" d="M66.7,360.07A19.706,19.706,0,1,0,86.4,379.776,19.706,19.706,0,0,0,66.7,360.07Zm-.082,29.151c-5.014,0-9.079-4.374-9.079-9.771s4.065-9.772,9.079-9.772,9.079,4.375,9.079,9.772S71.628,389.221,66.613,389.221Z" fill="url(#linear-gradient)"/>
      <path id="Path_3614" data-name="Path 3614" d="M111.063,360.07h12.485l19.326,39.412H129.737Z" transform="translate(-43.5 0)" fill="url(#linear-gradient-2)"/>
    </g>
  </g>
</svg>
